# xmcd CD database file
#
# Track frame offsets:
#	150
#	11286
#	22049
#	34601
#	46006
#	57724
#	69790
#	81090
#	91893
#	100774
#	111903
#	123536
#	133802
#	144102
#	157253
#	170063
#	181508
#
# Disc length: 2565 seconds
#
# Revision: 0
# Processed by: cddbd v1.5.1PL0 Copyright (c) Steve Scherf et al.
# Submitted via: CDex 1.51
#
DISCID=d90a0311
DTITLE=Patsy Cline - Stop The World
DYEAR=1900
DGENRE=Country
TTITLE0=Stop The World
TTITLE1=I Can See An Angel
TTITLE2=A Poor Man's Roses
TTITLE3=Just Out Of Reach
TTITLE4=In Care Of The Blues
TTITLE5=Today,Tomorrow And Forever
TTITLE6=A Stranger In My Arms
TTITLE7=Honky Tonk Merry Go Round
TTITLE8=Ain't No Wheels On This Ship
TTITLE9=There He Goes
TTITLE10=Walking After Midnight
TTITLE11=Three Cigarettes In An Ashtray
TTITLE12=Pick Me Up
TTITLE13=Keep Your Hand On The Throttle
TTITLE14=Just A Closer Walk With Me
TTITLE15=Crazy Dreams
TTITLE16=I Cried All The Way To The Alter
EXTD=
EXTT0=
EXTT1=
EXTT2=
EXTT3=
EXTT4=
EXTT5=
EXTT6=
EXTT7=
EXTT8=
EXTT9=
EXTT10=
EXTT11=
EXTT12=
EXTT13=
EXTT14=
EXTT15=
EXTT16=
PLAYORDER=
